<svg width="512" height="512" viewBox="0 0 512 512" fill="none" xmlns="http://www.w3.org/2000/svg">
<g clip-path="url(#clip0_1065_113)">
<path d="M207.239 218.724L213.672 208.538H121.467L145.054 171.549C153.631 158.683 161.136 155.467 184.724 155.467H292.475H358.412L309.897 233.198L261.382 310.929H397.009L373.422 347.918C364.845 360.783 357.34 364 333.753 364H163.281L221.177 269.115L256.826 212.291L274.65 183.879" stroke="#D8DBF2" stroke-width="20"/>
<path d="M199.772 211.257L206.205 201.071H114L137.587 164.082C146.164 151.216 153.67 148 177.257 148H285.008H350.945L302.43 225.731L253.916 303.462H389.542L365.955 340.451C357.378 353.317 349.873 356.533 326.286 356.533H155.814L213.71 261.648L249.359 204.824L267.183 176.412" stroke="url(#paint0_linear_1065_113)" stroke-width="20"/>
<path d="M481.526 173.915C526.86 298.47 462.64 436.192 338.085 481.526C213.53 526.86 75.808 462.64 30.4738 338.085C-14.8605 213.53 49.3604 75.808 173.915 30.4738C298.47 -14.8604 436.192 49.3605 481.526 173.915ZM47.9036 331.741C89.7341 446.669 216.812 505.927 331.741 464.096C446.669 422.266 505.927 295.188 464.096 180.259C422.266 65.3306 295.188 6.07302 180.259 47.9036C65.3306 89.7341 6.07302 216.812 47.9036 331.741Z" fill="url(#paint1_linear_1065_113)"/>
<mask id="mask0_1065_113" style="mask-type:alpha" maskUnits="userSpaceOnUse" x="339" y="176" width="107" height="107">
<path d="M344.336 278L357.695 264.502M357.695 264.502C365.766 272.574 379.356 272.322 387.428 264.25L395.36 256.51L365.952 227.228L358.197 235.019C350.125 243.091 349.623 256.43 357.695 264.502Z" stroke="#211C2F" stroke-width="10" stroke-linecap="round" stroke-linejoin="round"/>
<path d="M444.375 185.032C446.335 183.088 446.349 179.922 444.404 177.961C442.46 176 439.294 175.987 437.333 177.931L444.375 185.032ZM419.489 232.254L415.996 235.831C416.948 236.762 418.233 237.274 419.564 237.254C420.896 237.234 422.164 236.683 423.089 235.725L419.489 232.254ZM390.081 202.972L386.532 199.45C384.592 201.405 384.598 204.56 386.546 206.508L390.081 202.972ZM398.013 194.98L394.532 191.391C394.509 191.413 394.486 191.435 394.464 191.458L398.013 194.98ZM427.244 224.211L423.653 220.732L423.644 220.741L427.244 224.211ZM399.972 234.144C398.031 236.108 398.05 239.274 400.014 241.215C401.978 243.156 405.144 243.137 407.085 241.173L399.972 234.144ZM381.142 215.397C379.189 217.35 379.189 220.516 381.142 222.468C383.094 224.421 386.26 224.421 388.213 222.468L381.142 215.397ZM437.333 177.931L423.975 191.178L431.016 198.279L444.375 185.032L437.333 177.931ZM393.63 206.494L401.562 198.502L394.464 191.458L386.532 199.45L393.63 206.494ZM423.089 235.725L430.843 227.681L423.644 220.741L415.89 228.784L423.089 235.725ZM401.494 198.569C407.988 192.271 417.947 192.251 423.96 198.264L431.031 191.193C420.9 181.062 404.684 181.545 394.532 191.391L401.494 198.569ZM423.96 198.264C429.934 204.239 429.742 214.447 423.653 220.732L430.835 227.69C440.387 217.831 441.2 201.362 431.031 191.193L423.96 198.264ZM422.983 228.677L417.579 223.399L410.592 230.553L415.996 235.831L422.983 228.677ZM410.529 223.461L399.972 234.144L407.085 241.173L417.642 230.49L410.529 223.461ZM417.621 223.44L398.895 204.715L391.824 211.786L410.55 230.511L417.621 223.44ZM398.895 204.715L393.617 199.436L386.546 206.508L391.824 211.786L398.895 204.715ZM391.824 204.715L381.142 215.397L388.213 222.468L398.895 211.786L391.824 204.715Z" fill="#211C2F"/>
</mask>
<g mask="url(#mask0_1065_113)">
<rect x="339.057" y="177.209" width="106.321" height="106.069" fill="black"/>
<rect x="339.057" y="177.209" width="106.321" height="106.069" fill="url(#paint2_linear_1065_113)"/>
</g>
<path d="M340 277.518L353.359 264.02M353.359 264.02C361.431 272.092 375.021 271.84 383.092 263.768L391.024 256.028L361.616 226.746L353.861 234.537C345.79 242.609 345.287 255.948 353.359 264.02Z" stroke="#D8DBF2" stroke-width="10" stroke-linecap="round" stroke-linejoin="round"/>
<path d="M440.039 184.55C442 182.606 442.013 179.44 440.069 177.479C438.124 175.518 434.958 175.505 432.998 177.449L440.039 184.55ZM415.153 231.772L411.66 235.349C412.612 236.28 413.897 236.792 415.229 236.772C416.56 236.752 417.829 236.201 418.753 235.243L415.153 231.772ZM385.746 202.49L382.197 198.968C380.257 200.923 380.263 204.078 382.21 206.026L385.746 202.49ZM393.677 194.498L390.196 190.909C390.173 190.931 390.151 190.953 390.128 190.976L393.677 194.498ZM422.908 223.729L419.317 220.25L419.309 220.259L422.908 223.729ZM395.636 233.662C393.695 235.626 393.714 238.792 395.678 240.733C397.642 242.674 400.808 242.655 402.749 240.691L395.636 233.662ZM376.806 214.915C374.853 216.868 374.853 220.034 376.806 221.986C378.759 223.939 381.924 223.939 383.877 221.986L376.806 214.915ZM432.998 177.449L419.639 190.696L426.68 197.797L440.039 184.55L432.998 177.449ZM389.295 206.012L397.226 198.02L390.128 190.976L382.197 198.968L389.295 206.012ZM418.753 235.243L426.508 227.2L419.309 220.259L411.554 228.302L418.753 235.243ZM397.158 198.087C403.652 191.789 413.611 191.769 419.624 197.782L426.695 190.711C416.564 180.58 400.348 181.063 390.196 190.909L397.158 198.087ZM419.624 197.782C425.598 203.757 425.406 213.966 419.317 220.25L426.499 227.208C436.051 217.349 436.864 200.881 426.695 190.711L419.624 197.782ZM418.647 228.195L413.243 222.917L406.256 230.071L411.66 235.349L418.647 228.195ZM406.193 222.979L395.636 233.662L402.749 240.691L413.306 230.008L406.193 222.979ZM413.285 222.958L394.559 204.233L387.488 211.304L406.214 230.029L413.285 222.958ZM394.559 204.233L389.281 198.955L382.21 206.026L387.488 211.304L394.559 204.233ZM387.488 204.233L376.806 214.915L383.877 221.986L394.559 211.304L387.488 204.233Z" fill="#D8DBF2"/>
</g>
<defs>
<linearGradient id="paint0_linear_1065_113" x1="354.298" y1="148" x2="320.456" y2="371.517" gradientUnits="userSpaceOnUse">
<stop stop-color="#E50402"/>
<stop offset="0.21631" stop-color="#FE8C01"/>
<stop offset="0.329771" stop-color="#F9E803"/>
<stop offset="0.489355" stop-color="#12B90F"/>
<stop offset="0.640292" stop-color="#02772D"/>
<stop offset="0.788703" stop-color="#034DFC"/>
<stop offset="0.991562" stop-color="#78078B"/>
</linearGradient>
<linearGradient id="paint1_linear_1065_113" x1="412.934" y1="71.7115" x2="137.435" y2="466.762" gradientUnits="userSpaceOnUse">
<stop stop-color="#E50402"/>
<stop offset="0.156166" stop-color="#FE8C01"/>
<stop offset="0.344664" stop-color="#F9E803"/>
<stop offset="0.583833" stop-color="#027828"/>
<stop offset="0.824349" stop-color="#034DFC"/>
<stop offset="0.97835" stop-color="#78078B"/>
</linearGradient>
<linearGradient id="paint2_linear_1065_113" x1="445.378" y1="283.278" x2="338.483" y2="270.125" gradientUnits="userSpaceOnUse">
<stop stop-color="#E50402"/>
<stop offset="0.21631" stop-color="#FE8C01"/>
<stop offset="0.329771" stop-color="#F9E803"/>
<stop offset="0.489355" stop-color="#12B90F"/>
<stop offset="0.640292" stop-color="#02772D"/>
<stop offset="0.788703" stop-color="#034DFC"/>
<stop offset="0.991562" stop-color="#78078B"/>
</linearGradient>
<clipPath id="clip0_1065_113">
<rect width="512" height="512" fill="white"/>
</clipPath>
</defs>
</svg>
