<svg width="512" height="512" viewBox="0 0 512 512" fill="none" xmlns="http://www.w3.org/2000/svg">
<path d="M83 453L136.148 399.296M136.148 399.296C168.263 431.41 222.33 430.411 254.445 398.296L286 367.5L169 251L138.148 282C106.034 314.114 104.034 367.182 136.148 399.296Z" stroke="#211C2F" stroke-width="30" stroke-linecap="round" stroke-linejoin="round"/>
<path d="M477.562 79.651C483.444 73.8178 483.484 64.3204 477.651 58.438C471.818 52.5556 462.32 52.5157 456.438 58.349L477.562 79.651ZM382 271L371.519 281.731C374.377 284.522 378.231 286.058 382.225 285.998C386.22 285.938 390.026 284.287 392.799 281.411L382 271ZM265 154.5L254.353 143.934C248.533 149.798 248.551 159.264 254.393 165.107L265 154.5ZM296.555 122.704L286.113 111.936C286.044 112.003 285.976 112.07 285.909 112.138L296.555 122.704ZM412.852 239L402.079 228.563C402.07 228.571 402.062 228.58 402.053 228.589L412.852 239ZM307.831 281.956C302.008 287.849 302.064 297.346 307.956 303.169C313.849 308.992 323.346 308.936 329.169 303.044L307.831 281.956ZM232.893 207.393C227.036 213.251 227.036 222.749 232.893 228.607C238.751 234.464 248.249 234.464 254.107 228.607L232.893 207.393ZM456.438 58.349L403.29 111.053L424.414 132.355L477.562 79.651L456.438 58.349ZM275.647 165.066L307.202 133.27L285.909 112.138L254.353 143.934L275.647 165.066ZM392.799 281.411L423.65 249.411L402.053 228.589L371.201 260.589L392.799 281.411ZM306.998 133.472C334.626 106.678 377.308 106.373 403.245 132.31L424.458 111.097C386.167 72.8058 324.713 74.5009 286.113 111.936L306.998 133.472ZM403.245 132.31C429.067 158.133 427.998 201.811 402.079 228.563L423.625 249.438C459.935 211.961 462.865 149.504 424.458 111.097L403.245 132.31ZM392.481 260.269L370.981 239.269L350.019 260.731L371.519 281.731L392.481 260.269ZM349.831 239.456L307.831 281.956L329.169 303.044L371.169 260.544L349.831 239.456ZM371.107 239.393L296.607 164.893L275.393 186.107L349.893 260.607L371.107 239.393ZM296.607 164.893L275.607 143.893L254.393 165.107L275.393 186.107L296.607 164.893ZM275.393 164.893L232.893 207.393L254.107 228.607L296.607 186.107L275.393 164.893Z" fill="#211C2F"/>
<mask id="mask0_1066_91" style="mask-type:alpha" maskUnits="userSpaceOnUse" x="49" y="49" width="414" height="414">
<path d="M64 448L117.148 394.296M117.148 394.296C149.263 426.41 203.33 425.411 235.445 393.296L267 362.5L150 246L119.148 277C87.0338 309.114 85.0338 362.182 117.148 394.296Z" stroke="#211C2F" stroke-width="30" stroke-linecap="round" stroke-linejoin="round"/>
<path d="M458.562 74.651C464.444 68.8178 464.484 59.3204 458.651 53.438C452.818 47.5556 443.32 47.5157 437.438 53.349L458.562 74.651ZM363 266L352.519 276.731C355.377 279.522 359.231 281.058 363.225 280.998C367.22 280.938 371.026 279.287 373.799 276.411L363 266ZM246 149.5L235.353 138.934C229.533 144.798 229.551 154.264 235.393 160.107L246 149.5ZM277.555 117.704L267.113 106.936C267.044 107.003 266.976 107.07 266.909 107.138L277.555 117.704ZM393.852 234L383.079 223.563C383.07 223.571 383.062 223.58 383.053 223.589L393.852 234ZM288.831 276.956C283.008 282.849 283.064 292.346 288.956 298.169C294.849 303.992 304.346 303.936 310.169 298.044L288.831 276.956ZM213.893 202.393C208.036 208.251 208.036 217.749 213.893 223.607C219.751 229.464 229.249 229.464 235.107 223.607L213.893 202.393ZM437.438 53.349L384.29 106.053L405.414 127.355L458.562 74.651L437.438 53.349ZM256.647 160.066L288.202 128.27L266.909 107.138L235.353 138.934L256.647 160.066ZM373.799 276.411L404.65 244.411L383.053 223.589L352.201 255.589L373.799 276.411ZM287.998 128.472C315.626 101.678 358.308 101.373 384.245 127.31L405.458 106.097C367.167 67.8058 305.713 69.5009 267.113 106.936L287.998 128.472ZM384.245 127.31C410.067 153.133 408.998 196.811 383.079 223.563L404.625 244.438C440.935 206.961 443.865 144.504 405.458 106.097L384.245 127.31ZM373.481 255.269L351.981 234.269L331.019 255.731L352.519 276.731L373.481 255.269ZM330.831 234.456L288.831 276.956L310.169 298.044L352.169 255.544L330.831 234.456ZM352.107 234.393L277.607 159.893L256.393 181.107L330.893 255.607L352.107 234.393ZM277.607 159.893L256.607 138.893L235.393 160.107L256.393 181.107L277.607 159.893ZM256.393 159.893L213.893 202.393L235.107 223.607L277.607 181.107L256.393 159.893Z" fill="#211C2F"/>
</mask>
<g mask="url(#mask0_1066_91)">
<rect x="43" y="47" width="423" height="422" fill="black"/>
<rect x="43" y="47" width="423" height="422" fill="url(#paint0_linear_1066_91)"/>
</g>
<defs>
<linearGradient id="paint0_linear_1066_91" x1="466" y1="469" x2="40.7149" y2="416.668" gradientUnits="userSpaceOnUse">
<stop stop-color="#E50402"/>
<stop offset="0.21631" stop-color="#FE8C01"/>
<stop offset="0.329771" stop-color="#F9E803"/>
<stop offset="0.489355" stop-color="#12B90F"/>
<stop offset="0.640292" stop-color="#02772D"/>
<stop offset="0.788703" stop-color="#034DFC"/>
<stop offset="0.991562" stop-color="#78078B"/>
</linearGradient>
</defs>
</svg>
